<svg id="Layer_3" data-name="Layer 3" xmlns="http://www.w3.org/2000/svg" viewBox="0 0 1965.45 1965.45"><defs><style>.cls-1{fill:#2d3335;}.cls-1,.cls-2{stroke:#231f20;stroke-miterlimit:10;stroke-width:60px;}.cls-2{fill:#fff;}</style></defs><title>ValuntuLogo</title><circle class="cls-1" cx="982.73" cy="982.73" r="952.73"/><circle class="cls-2" cx="980.23" cy="982.73" r="552.82"/><circle class="cls-2" cx="335.06" cy="981.85" r="160.9"/><circle class="cls-1" cx="983.3" cy="982.73" r="405.8"/><g id="Layer_4" data-name="Layer 4"><path class="cls-2" d="M1500,1846,1734.75,819.9a108.88,108.88,0,0,1,106.14-84.59h0c69.27,0,120.92,63.83,106.48,131.57L1698.12,2036.07A202.57,202.57,0,0,1,1500,2196.41h0a202.57,202.57,0,0,1-198.12-160.34L1052.63,866.88c-14.44-67.74,37.21-131.57,106.48-131.57h0a108.88,108.88,0,0,1,106.14,84.59L1500,1846Z" transform="translate(-516.7 -471.76)"/></g><circle class="cls-2" cx="1307.41" cy="1543.24" r="160.9"/><circle class="cls-2" cx="1307.41" cy="420.46" r="160.9"/></svg>